<svg width="129" height="128" viewBox="0 0 129 128" fill="none" xmlns="http://www.w3.org/2000/svg">
<path d="M89.7896 5.85603H82.4056L90.0846 14.189V18.156H74.2686V13.511H81.9466L74.2686 5.17803V1.20703H89.7896V5.85603ZM71.1326 5.85603H63.7486L71.4276 14.189V18.156H55.6106V13.511H63.2896L55.6106 5.17803V1.20703H71.1326V5.85603ZM52.6586 6.04603H44.6906V13.317H52.6586V18.156H39.0266V1.20703H52.6586V6.04603Z" fill="#131313"/>
<path d="M28.1687 116.706L20.0717 25.8931H109.039L100.935 116.691L64.5007 126.793L28.1687 116.706Z" fill="#1572B6"/>
<path d="M64.5566 119.072L93.9956 110.91L100.922 33.3191H64.5566V119.072Z" fill="#33A9DC"/>
<path d="M64.5557 66.22H79.2937L80.3127 54.815H64.5557V43.677H92.4847L92.2177 46.665L89.4807 77.357H64.5557V66.22Z" fill="white"/>
<path d="M64.6227 95.146L64.5737 95.16L52.1697 91.81L51.3757 82.927H40.1967L41.7577 100.415L64.5717 106.748L64.6237 106.733L64.6227 95.146Z" fill="#EBEBEB"/>
<path d="M78.3476 76.886L77.0056 91.802L64.5836 95.155V106.743L87.4166 100.415L87.5846 98.533L89.5226 76.886H78.3476Z" fill="white"/>
<path d="M64.5946 43.677V54.814H37.6916L37.4676 52.311L36.9606 46.665L36.6936 43.677H64.5946ZM64.5556 66.221V77.359H52.3086L52.0856 74.856L51.5776 69.209L51.3106 66.221H64.5556Z" fill="#EBEBEB"/>
</svg>
