<svg width="129" height="128" viewBox="0 0 129 128" fill="none" xmlns="http://www.w3.org/2000/svg">
<path d="M86.7778 118.4C86.7778 118.1 86.8778 117.8 86.7778 117.5C86.5778 117.2 86.4778 117 86.2778 116.8C85.7778 116.2 85.2778 115.7 84.6778 115.1L78.7778 109.1L83.3778 104.4L85.8778 101.7C86.2778 101.3 86.7778 100.5 86.7778 99.9V99.5C86.7778 98.6 86.3778 98.1 85.4778 97.9L85.6778 98H84.9778C84.3778 98 82.6778 99.6 82.2778 100.1C80.7778 101.6 79.7778 103 77.7778 104.5V92.6C77.7778 91.5 77.1778 91 76.0778 91H75.7778C74.6778 91 73.7778 91.5 73.7778 92.6V118.5C73.7778 119.6 74.6778 120 75.7778 120H76.0778C77.1778 120 77.7778 119.5 77.7778 118.5V113.9L80.7778 116.8C81.6778 117.7 82.5778 118.3 83.3778 119.1C83.7778 119.5 84.5778 120 85.1778 120H85.4778C86.4778 120 86.7778 119.5 86.9778 118.7L86.7778 118.8V118.4ZM125.878 98H125.478C123.278 98 121.278 98.6 119.478 99.9C116.478 102.1 114.778 105 114.778 108.8V118.6C114.778 119.7 115.178 120 116.278 120H116.578C117.678 120 118.778 119.6 118.778 118.6V109.4C118.778 107.4 119.178 105.5 120.678 104C121.878 102.8 123.378 101.8 125.078 101.8C126.378 101.8 127.878 101.5 127.878 99.9C127.878 98.7 126.978 98 125.878 98ZM110.478 103C109.378 101.2 107.878 99.8 105.978 98.9C102.478 97.2 98.7778 97 95.3778 99L94.8778 99.3C93.4778 100.1 92.2778 101.1 91.3778 102.4C88.7778 106.2 88.4778 110.5 90.7778 114.5L90.9778 114.9C91.9778 116.6 93.2778 118 94.9778 118.9C98.5778 120.9 102.478 121.1 106.078 119.1L106.378 118.9C107.378 118.3 107.578 117.3 107.078 116.3C106.878 115.9 106.478 115.6 106.078 115.4H105.878C105.178 115.3 103.278 116.1 102.578 116.4C101.178 116.6 99.5778 116.7 98.1778 116.2L105.778 109.6C106.878 108.6 108.078 107.5 109.278 106.6C110.278 105.8 111.278 104.7 110.478 103.3V103ZM103.578 106.6L95.0778 113.9C94.7778 113.6 94.5778 113.2 94.3778 112.9C93.7778 111.9 93.3778 110.7 93.3778 109.5C93.2778 106.5 94.3778 104 97.0778 102.5C99.0778 101.3 101.278 101.1 103.478 101.9C104.578 102.3 105.878 103 106.578 104C105.578 104.9 104.478 105.7 103.578 106.6ZM22.7778 91H22.4778C21.3778 91 20.7778 91.4 20.7778 92.5V100.6C18.7778 98.8 16.3778 98.1 13.5778 98.1H12.7778C10.8778 98.1 9.07783 98.4 7.37783 99.4C3.77783 101.5 1.77783 104.6 1.77783 108.8V109.6C1.77783 111.5 2.27783 113.1 3.27783 114.8C5.37783 118.4 8.67783 120.2 12.7778 120.2H13.5778C15.4778 120.2 17.4778 119.9 19.0778 119C22.6778 116.9 24.7778 113.8 24.7778 109.7V92.7C24.7778 91.4 23.8778 91 22.7778 91ZM19.6778 112.8C18.1778 115.3 15.9778 116.7 13.0778 116.7C11.8778 116.7 10.6778 116.4 9.67783 115.8C7.07783 114.4 5.57783 112.1 5.57783 109.1C5.57783 108 5.77783 107 6.27783 106C7.67783 103.1 9.97783 101.5 13.1778 101.5C14.7778 101.5 16.1778 102 17.3778 102.9C19.4778 104.4 20.6778 106.4 20.6778 109C20.7778 110.4 20.3778 111.6 19.6778 112.8ZM38.3778 98H37.7778C35.8778 98 33.9778 98.3 32.3778 99.3C28.7778 101.4 26.7778 104.5 26.7778 108.7V109.5C26.7778 111.4 27.2778 113 28.2778 114.7C30.3778 118.3 33.6778 120.1 37.8778 120.1H38.6778C40.5778 120.1 42.4778 119.8 44.1778 118.9C47.7778 116.8 49.8778 113.7 49.8778 109.6V108.8C49.8778 107 49.2778 105.5 48.4778 104C46.2778 100 42.7778 98 38.3778 98ZM44.7778 112.8C43.2778 115.2 41.1778 116.7 38.2778 116.7C36.9778 116.7 35.6778 116.4 34.4778 115.7C31.9778 114.2 30.5778 112.1 30.5778 109.2C30.5778 108.1 30.7778 107.1 31.2778 106.1C32.6778 103.2 34.9778 101.6 38.1778 101.6C39.6778 101.6 40.9778 102 42.1778 102.8C44.3778 104.3 45.6778 106.4 45.6778 109.1C45.7778 110.3 45.4778 111.6 44.7778 112.8ZM69.2778 99.4L69.1778 99.5C67.4778 98.4 65.5778 98 63.5778 98H62.7778C60.8778 98 58.9778 98.3 57.3778 99.3C53.7778 101.4 51.7778 104.5 51.7778 108.6V109.4C51.7778 110.4 51.9778 111.3 52.1778 112.3C53.7778 117.8 58.0778 120.9 63.8778 120.5C65.4778 120.4 69.7778 119.9 69.7778 117.5V117.1C69.7778 116.2 69.0778 115.4 68.2778 115.2L68.1778 115H67.4778L67.2778 115.3C66.3778 115.7 64.8778 116.5 63.8778 116.5C62.6778 116.5 61.3778 116.5 60.2778 115.9C57.3778 114.5 55.6778 112.2 55.6778 109C55.6778 107.9 55.8778 106.9 56.3778 105.9C57.7778 103.1 60.0778 101.3 63.2778 101.4C63.8778 101.4 64.9778 101.7 65.5778 102C66.0778 102.2 67.3778 103 67.9778 103H68.1778L68.2778 102.8C69.1778 102.6 69.8778 101.9 69.8778 101V100.6C69.8778 100.2 69.6778 99.9 69.4778 99.6L69.2778 99.4ZM6.57783 68.2L6.67783 68.4C14.5778 81.8 28.3778 87.4 43.4778 87.4C72.6778 87.4 96.7778 74.3 107.778 46.8C115.178 47.2 122.778 45 126.378 37.9L127.278 36.1L125.478 35.1C121.178 32.6 115.478 32.3 110.678 33.7C110.078 28.5 106.678 24 102.678 20.8L101.078 19.5L99.7778 21.1C97.0778 24.2 96.2778 29.4 96.6778 33.4C96.9778 36.3 97.8778 39.3 99.6778 41.7C98.2778 42.5 96.7778 43.6 95.3778 44.1C92.5778 45.1 89.4778 46.1 86.4778 46.1H79.7778V32H66.7778V7H51.7778V19H26.7778V32H13.7778V46H2.57783L2.37783 47.5C1.87783 53.9 2.67783 60.1 5.37783 66L6.57783 68.2ZM66.7778 35H77.7778V46H66.7778V35ZM53.7778 9H64.7778V20H53.7778V9ZM53.7778 22H64.7778V33H53.7778V22ZM53.7778 35H64.7778V46H53.7778V35ZM40.7778 22H51.7778V33H40.7778V22ZM40.7778 35H51.7778V46H40.7778V35ZM41.8778 66.2C41.8778 67.9 40.4778 69.3 38.7778 69.3C37.0778 69.3 35.6778 67.9 35.6778 66.2C35.6778 64.5 37.0778 63.1 38.7778 63.1C40.4778 63.2 41.8778 64.5 41.8778 66.2ZM28.7778 22H38.7778V33H28.7778V22ZM28.7778 35H38.7778V46H28.7778V35ZM15.7778 35H26.7778V46H15.7778V35ZM18.1778 73C19.7778 73 21.3778 73 22.8778 72.9C26.7778 72.7 30.1778 72.2 32.9778 71.4C35.2778 76.7 39.4778 81.6 46.9778 85.2L43.4778 85.3C27.6778 85.2 19.1778 79.9 12.1778 72.9C14.2778 73 16.2778 73 18.1778 73ZM38.7778 68.4C39.9778 68.4 40.9778 67.4 40.9778 66.2C40.9778 65.9 40.8778 65.6 40.7778 65.4C40.5778 65.7 40.3778 65.9 39.9778 65.9C39.4778 65.9 39.0778 65.5 39.0778 65C39.0778 64.7 39.2778 64.4 39.4778 64.2C39.3778 64.1 39.0778 64 38.7778 64C37.5778 64 36.5778 65 36.5778 66.2C36.6778 67.4 37.5778 68.4 38.7778 68.4Z" fill="#019BC6"/>
</svg>
