<svg width="61" height="60" viewBox="0 0 61 60" fill="none" xmlns="http://www.w3.org/2000/svg">
<path fill-rule="evenodd" clip-rule="evenodd" d="M0.5 30C0.5 13.4315 13.9315 0 30.5 0C47.0685 0 60.5 13.4315 60.5 30C60.5 46.5685 47.0685 60 30.5 60C13.9315 60 0.5 46.5685 0.5 30ZM15.5 30.3141C15.5 22.0572 22.1972 15.36 30.4541 15.36C38.711 15.36 45.4082 22.0572 45.5 30.3141C45.5 36.9196 41.2798 42.516 35.3165 44.5343C34.5826 44.6261 34.3073 44.1673 34.3073 43.8004V39.6719C34.3073 38.2958 33.8487 37.3783 33.2982 36.9196C36.601 36.5527 40.0872 35.36 40.0872 29.5802C40.0872 27.9288 39.4449 26.5527 38.5276 25.5435C38.5348 25.5147 38.5449 25.4785 38.5569 25.4353C38.6973 24.9286 39.1048 23.4583 38.344 21.5985C38.344 21.5985 37.0596 21.2316 34.2156 23.1582C33.023 22.8829 31.7385 22.6994 30.4541 22.6994C29.1697 22.6994 27.8854 22.7912 26.6927 23.1582C23.8486 21.2316 22.5642 21.5985 22.5642 21.5985C21.7534 23.5806 22.2696 25.1203 22.3754 25.4357L22.3808 25.4517C21.3715 26.5527 20.821 27.8371 20.821 29.4884C20.821 35.2683 24.3074 36.5527 27.6101 36.9196C27.2431 37.2866 26.7844 37.9288 26.6927 38.938C25.867 39.305 23.7569 39.9472 22.3808 37.6536C22.3808 37.6536 21.5551 36.1857 20.0871 36.0939C20.0871 36.0939 18.6193 36.0939 19.9955 37.0114C19.9955 37.0114 21.0046 37.4701 21.6467 39.2132C21.6467 39.2132 22.5642 42.149 26.6927 41.2316V43.8004C26.6927 44.1673 26.4174 44.6261 25.6835 44.5343C19.8119 42.516 15.5 36.9196 15.5 30.3141Z" fill="#151718"/>
</svg>
