<svg width="128" height="128" viewBox="0 0 128 128" fill="none" xmlns="http://www.w3.org/2000/svg">
<path d="M27.8542 116.354L19.8112 26.1431H108.189L100.138 116.34L63.9462 126.373L27.8542 116.354Z" fill="#E44D26"/>
<path d="M64.0001 118.704L93.2441 110.596L100.125 33.52H64.0001V118.704Z" fill="#F16529"/>
<path d="M64.0001 66.978H49.3591L48.3491 55.647H64.0001V44.583H36.2571L36.5211 47.552L39.2411 78.041H64.0001V66.978ZM64.0001 95.711L63.9511 95.724L51.6301 92.396L50.8421 83.573H39.7351L41.2851 100.945L63.9491 107.237L64.0001 107.222V95.711Z" fill="#EBEBEB"/>
<path d="M28.0342 1.62695H33.6562V7.18295H38.8002V1.62695H44.4232V18.449H38.8002V12.816H33.6572V18.449H28.0342V1.62695ZM51.8162 7.20595H46.8662V1.62695H62.3912V7.20595H57.4392V18.449H51.8162V7.20595ZM64.8552 1.62695H70.7172L74.3242 7.53795L77.9272 1.62695H83.7922V18.449H78.1912V10.111L74.3242 16.092H74.2262L70.3562 10.111V18.449H64.8542V1.62695H64.8552ZM86.5912 1.62695H92.2152V12.889H100.122V18.45H86.5912V1.62695Z" fill="black"/>
<path d="M63.9622 66.978V78.041H77.5862L76.3022 92.39L63.9622 95.721V107.231L86.6442 100.945L86.8102 99.075L89.4102 69.948L89.6802 66.978H86.6982H63.9622ZM63.9622 44.583V55.647H90.6872L90.9082 53.16L91.4132 47.552L91.6782 44.583H63.9622Z" fill="white"/>
</svg>
