<svg width="129" height="128" viewBox="0 0 129 128" fill="none" xmlns="http://www.w3.org/2000/svg">
<path d="M1.51923 1.40796H126.703V126.593H1.51923V1.40796Z" fill="#F0DB4F"/>
<path d="M116.458 96.7361C115.541 91.0251 111.817 86.2281 100.786 81.7551C96.9542 79.9941 92.6822 78.7331 91.4092 75.8291C90.9572 74.1391 90.8972 73.1871 91.1832 72.1641C92.0042 68.8441 95.9672 67.8091 99.1082 68.7611C101.131 69.4391 103.046 70.9981 104.201 73.4851C109.603 69.9871 109.592 70.0101 113.364 67.6061C111.983 65.4651 111.246 64.4771 110.342 63.5611C107.093 59.9321 102.666 58.0631 95.5862 58.2061L91.8982 58.6831C88.3642 59.5761 84.9962 61.4311 83.0212 63.9181C77.0952 70.6421 78.7852 82.4101 85.9962 87.2531C93.1002 92.5851 103.536 93.7981 104.869 98.7841C106.166 104.888 100.383 106.864 94.6352 106.162C90.3992 105.281 88.0432 103.128 85.4962 99.2131C80.8082 101.926 80.8082 101.926 75.9882 104.698C77.1312 107.197 78.3322 108.328 80.2482 110.493C89.3162 119.691 112.008 119.239 116.078 105.317C116.243 104.839 117.339 101.651 116.458 96.7361ZM69.5732 58.9431H57.8642L57.8162 89.2151C57.8162 95.6531 58.1492 101.555 57.1022 103.364C55.3892 106.922 50.9502 106.481 48.9272 105.791C46.8682 104.779 45.8212 103.34 44.6082 101.306C44.2752 100.722 44.0252 100.27 43.9412 100.235L34.4212 106.065C36.0042 109.314 38.3362 112.134 41.3232 113.966C45.7852 116.644 51.7822 117.465 58.0542 116.025C62.1362 114.836 65.6582 112.373 67.5022 108.624C70.1682 103.709 69.5962 97.7601 69.5722 91.1801C69.6322 80.4451 69.5732 69.7121 69.5732 58.9431Z" fill="#323330"/>
</svg>
