<svg width="128" height="128" viewBox="0 0 128 128" fill="none" xmlns="http://www.w3.org/2000/svg">
<path d="M52.581 67.8171C52.581 67.8171 49.297 69.7281 54.922 70.3741C61.736 71.1521 65.219 71.0401 72.727 69.6211C72.727 69.6211 74.706 70.8581 77.462 71.9301C60.626 79.1431 39.358 71.5121 52.581 67.8171ZM50.522 58.4021C50.522 58.4021 46.838 61.1311 52.467 61.7131C59.747 62.4641 65.494 62.5261 75.446 60.6101C75.446 60.6101 76.819 62.0061 78.982 62.7671C58.63 68.7211 35.961 63.2361 50.522 58.4021Z" fill="#0074BD"/>
<path d="M67.865 42.4309C72.016 47.2089 66.777 51.5049 66.777 51.5049C66.777 51.5049 77.31 46.0679 72.473 39.2569C67.954 32.9079 64.491 29.7549 83.244 18.8789C83.244 18.8789 53.806 26.2289 67.865 42.4309Z" fill="#EA2D2E"/>
<path d="M90.132 74.781C90.132 74.781 92.564 76.786 87.454 78.336C77.738 81.279 47.01 82.167 38.475 78.453C35.409 77.118 41.162 75.266 42.971 74.877C44.858 74.468 45.936 74.543 45.936 74.543C42.524 72.14 23.881 79.262 36.467 81.305C70.791 86.868 99.034 78.799 90.132 74.781ZM54.162 48.647C54.162 48.647 38.533 52.36 48.628 53.71C52.892 54.28 61.386 54.149 69.304 53.485C75.773 52.942 82.265 51.781 82.265 51.781C82.265 51.781 79.986 52.759 78.335 53.885C62.461 58.06 31.802 56.115 40.629 51.847C48.092 48.236 54.162 48.647 54.162 48.647ZM82.2 64.317C98.335 55.935 90.874 47.879 85.667 48.964C84.394 49.23 83.822 49.46 83.822 49.46C83.822 49.46 84.297 48.716 85.2 48.397C95.502 44.777 103.423 59.078 81.878 64.742C81.878 64.742 82.125 64.518 82.2 64.317Z" fill="#0074BD"/>
<path d="M72.474 1.31299C72.474 1.31299 81.409 10.252 63.998 23.995C50.036 35.022 60.814 41.308 63.992 48.493C55.842 41.139 49.864 34.665 53.874 28.641C59.763 19.799 76.078 15.51 72.474 1.31299Z" fill="#EA2D2E"/>
<path d="M55.749 87.0389C71.233 88.0289 95.018 86.4879 95.581 79.1609C95.581 79.1609 94.499 81.9379 82.782 84.1419C69.564 86.6299 53.259 86.3409 43.591 84.7449C43.591 84.7449 45.571 86.3849 55.749 87.0389Z" fill="#0074BD"/>
<path d="M94.866 100.181H94.394V99.9171H95.664V100.181H95.194V101.498H94.865L94.866 100.181ZM97.401 100.247H97.395L96.927 101.498H96.711L96.246 100.247H96.241V101.498H95.929V99.9171H96.386L96.817 101.036L97.249 99.9171H97.703V101.498H97.401V100.247ZM53.211 115.037C51.751 116.303 50.207 117.015 48.82 117.015C46.846 117.015 45.775 115.829 45.775 113.93C45.775 111.875 46.921 110.37 51.513 110.37H53.21L53.211 115.037ZM57.242 119.585V105.508C57.242 101.909 55.189 99.5351 50.245 99.5351C47.359 99.5351 44.829 100.249 42.772 101.157L43.364 103.65C44.984 103.055 47.079 102.503 49.135 102.503C51.985 102.503 53.21 103.65 53.21 106.024V107.803H51.786C44.865 107.803 41.742 110.488 41.742 114.526C41.742 118.005 43.8 119.982 47.675 119.982C50.165 119.982 52.026 118.954 53.763 117.449L54.079 119.586L57.242 119.585ZM70.694 119.585H65.667L59.616 99.8961H64.007L67.763 111.995L68.598 115.63C70.494 110.372 71.838 105.034 72.51 99.8971H76.781C75.638 106.378 73.578 113.495 70.694 119.585ZM89.982 115.037C88.517 116.303 86.972 117.015 85.59 117.015C83.614 117.015 82.544 115.829 82.544 113.93C82.544 111.875 83.693 110.37 88.28 110.37H89.981L89.982 115.037ZM94.015 119.585V105.508C94.015 101.909 91.956 99.5351 87.016 99.5351C84.127 99.5351 81.598 100.249 79.541 101.157L80.134 103.65C81.754 103.055 83.852 102.503 85.908 102.503C88.754 102.503 89.982 103.65 89.982 106.024V107.803H88.558C81.635 107.803 78.513 110.488 78.513 114.526C78.513 118.005 80.569 119.982 84.443 119.982C86.934 119.982 88.792 118.954 90.534 117.449L90.852 119.586L94.015 119.585ZM37.322 122.931C36.175 124.61 34.317 125.939 32.285 126.688L30.296 124.343C31.843 123.549 33.168 122.268 33.785 121.074C34.317 120.011 34.538 118.644 34.538 115.373V92.8911H38.822V115.064C38.822 119.439 38.474 121.208 37.322 122.931Z" fill="#EA2D2E"/>
</svg>
