<svg width="129" height="128" viewBox="0 0 129 128" fill="none" xmlns="http://www.w3.org/2000/svg">
<g clip-path="url(#clip0_212_109)">
<path d="M0.666748 51.0979V76.8599H5.08875V56.6039L21.3967 76.8699H49.0907V72.7569H31.2197V65.9559H45.5897V61.8429H31.2197V55.2219H49.0897V51.1059H26.7967V55.2219H26.7987V76.6799L6.19375 51.0979H0.666748ZM85.7567 51.1079V55.2229H94.7868V76.8729H99.2067V55.2229H108.054V51.1069H85.7567V51.1079ZM54.4347 51.1189L75.1647 76.8829H80.9678L70.6027 64.0099L80.9528 51.1389L75.1628 51.1489L67.7038 60.4099L60.2237 51.1199H54.4337L54.4347 51.1189ZM124.593 65.7169C123.832 65.7169 123.148 65.8449 122.542 66.1109C121.94 66.3739 121.464 66.7439 121.116 67.2189C120.766 67.6949 120.591 68.2509 120.591 68.8829C120.591 69.6529 120.849 70.2669 121.371 70.7299C121.888 71.1939 122.598 71.5389 123.495 71.7659L124.735 72.0779C125.085 72.1628 125.428 72.2744 125.761 72.4119C126.019 72.514 126.252 72.6714 126.444 72.8729C126.61 73.0667 126.698 73.3149 126.692 73.5699C126.694 73.8624 126.594 74.1466 126.409 74.3729C126.208 74.6158 125.945 74.8004 125.649 74.9079C125.287 75.0416 124.903 75.1067 124.517 75.0999C124.137 75.1051 123.759 75.0435 123.401 74.9179C123.089 74.8055 122.812 74.6135 122.597 74.3609C122.385 74.0949 122.262 73.7693 122.245 73.4299H120.304C120.331 74.1399 120.52 74.7459 120.87 75.2419C121.22 75.7379 121.706 76.1149 122.33 76.3719C122.95 76.6319 123.687 76.7619 124.532 76.7619C125.407 76.7619 126.151 76.6259 126.765 76.3619C127.382 76.0919 127.853 75.7189 128.179 75.2439C128.506 74.7649 128.667 74.2159 128.667 73.5859C128.667 73.1199 128.577 72.7139 128.401 72.3689C128.226 72.0257 127.981 71.7234 127.681 71.4819C127.369 71.232 127.022 71.0276 126.653 70.8749C126.268 70.7118 125.87 70.5829 125.463 70.4899L124.443 70.2399C124.217 70.186 123.995 70.1209 123.776 70.0449C123.566 69.9736 123.366 69.878 123.179 69.7599C123.005 69.6559 122.858 69.5128 122.749 69.3419C122.64 69.1684 122.585 68.9666 122.591 68.7619C122.592 68.5036 122.675 68.2524 122.829 68.0449C122.985 67.8349 123.214 67.6689 123.507 67.5449C123.843 67.4154 124.202 67.3529 124.563 67.3609C125.148 67.3609 125.625 67.4869 125.993 67.7439C126.17 67.8639 126.319 68.0224 126.427 68.2076C126.535 68.3929 126.599 68.6002 126.616 68.8139H128.516C128.516 68.238 128.336 67.6764 128.003 67.2069C127.67 66.7409 127.211 66.3739 126.626 66.1109C126.042 65.8459 125.366 65.7169 124.593 65.7169ZM116.595 65.8609V73.4109C116.592 73.7879 116.533 74.1079 116.419 74.3649C116.316 74.6081 116.139 74.8126 115.913 74.9489C115.695 75.0819 115.425 75.1489 115.11 75.1489C114.82 75.1489 114.564 75.0919 114.339 74.9789C114.122 74.8725 113.94 74.7054 113.817 74.4979C113.686 74.2698 113.619 74.0108 113.622 73.7479H111.659C111.659 74.4089 111.806 74.9609 112.106 75.4039C112.404 75.8479 112.825 76.1959 113.317 76.4059C113.86 76.6384 114.446 76.7542 115.037 76.7459C115.734 76.7459 116.348 76.6119 116.872 76.3459C117.386 76.0905 117.816 75.6914 118.108 75.1969C118.401 74.6979 118.552 74.1039 118.556 73.4099V65.8609H116.595ZM63.2627 65.9199L54.4187 76.9019H60.2237L66.1608 69.5219L63.2627 65.9199ZM109.048 74.4179C108.724 74.4179 108.448 74.5299 108.218 74.7539C108.107 74.8565 108.019 74.9814 107.959 75.1205C107.9 75.2596 107.871 75.4097 107.874 75.5609C107.87 75.7138 107.899 75.8658 107.958 76.0068C108.017 76.1478 108.106 76.2746 108.218 76.3789C108.448 76.6039 108.724 76.7149 109.048 76.7149C109.25 76.7163 109.448 76.6624 109.622 76.5589C109.799 76.4579 109.94 76.3189 110.05 76.1429C110.158 75.9679 110.215 75.7665 110.216 75.5609C110.216 75.4092 110.184 75.2592 110.123 75.1203C110.062 74.9814 109.973 74.8566 109.862 74.7539C109.755 74.6464 109.629 74.5613 109.489 74.5036C109.349 74.4459 109.199 74.4167 109.048 74.4179Z" fill="black"/>
</g>
<defs>
<clipPath id="clip0_212_109">
<rect width="128" height="128" fill="white" transform="translate(0.666748)"/>
</clipPath>
</defs>
</svg>
