<svg width="129" height="128" viewBox="0 0 129 128" fill="none" xmlns="http://www.w3.org/2000/svg">
<path fill-rule="evenodd" clip-rule="evenodd" d="M63.7424 100.219C65.5344 101.701 67.6354 102.333 69.9034 102.45C70.8414 102.499 71.8064 102.453 72.7294 102.285C74.1934 102.019 75.6534 101.685 77.0774 101.256C79.9774 100.381 82.4834 98.869 84.3544 96.427C85.4204 95.035 86.2954 93.53 86.8574 91.866C87.3214 90.493 87.7574 89.106 88.1044 87.701C88.3784 86.594 88.5144 85.451 88.6804 84.32C88.7914 83.572 88.8584 82.816 88.9274 82.061C89.0394 80.836 89.1564 79.613 89.2374 78.385C89.2944 77.531 89.2924 76.673 89.3254 75.818C89.3364 75.557 89.3784 75.298 89.4034 75.039C89.4244 74.798 89.5464 74.715 89.7924 74.719C90.6564 74.732 91.5224 74.754 92.3854 74.715C93.3524 74.672 94.3264 74.63 95.2784 74.471C96.6331 74.2441 97.9771 73.9572 99.3064 73.611C100.874 73.2 102.313 72.465 103.699 71.629C105.311 70.654 106.783 69.511 107.974 68.038C109.013 66.756 109.505 65.27 109.254 63.649C108.89 61.294 106.911 59.751 104.61 59.646C103.776 59.608 102.93 59.696 102.1 59.801C101.095 59.929 100.105 60.155 99.1034 60.304C98.4114 60.408 97.7104 60.454 97.0204 60.526L97.0014 60.436C98.2914 57.999 99.6354 55.59 100.855 53.12C101.792 51.224 102.592 49.261 103.419 47.311C104.789 44.083 105.882 40.756 106.788 37.373C107.655 34.135 108.397 30.862 108.632 27.502C108.726 26.161 108.791 24.814 108.782 23.471C108.776 22.399 108.66 21.326 108.553 20.258C108.431 19.034 108.061 17.874 107.549 16.758C106.875 15.286 105.828 14.079 104.727 12.933C103.846 12.015 102.876 11.179 101.915 10.343C100.544 9.151 99.0024 8.198 97.4024 7.353C95.5887 6.38965 93.6673 5.64446 91.6784 5.133C90.4664 4.82742 89.2467 4.55366 88.0204 4.312C87.5844 4.224 87.1444 4 86.7054 4H78.4374C78.1384 4 77.8424 4.196 77.5414 4.229C75.5626 4.44498 73.6088 4.84846 71.7064 5.434C70.9964 5.653 70.3484 5.525 69.6734 5.462C69.1554 5.414 68.6464 5.281 68.1284 5.255C66.1574 5.157 64.1844 5.015 62.2124 5.036C60.3244 5.056 58.4554 5.368 56.6284 5.886C55.0994 6.322 53.6024 6.851 52.2304 7.656C51.6444 8 51.1784 7.935 50.5714 7.761C48.5328 7.1638 46.4765 6.62888 44.4054 6.157C43.1144 5.868 41.7854 5.722 40.4664 5.586C39.2005 5.45452 37.9298 5.37545 36.6574 5.349C35.4154 5.322 34.1654 5.323 32.9284 5.433C30.9594 5.608 29.0284 6.008 27.1504 6.654C25.0802 7.36177 23.1459 8.41721 21.4304 9.775C19.6804 11.16 18.2764 12.849 17.1494 14.78C15.9604 16.817 15.1434 18.998 14.6374 21.287C14.3624 22.528 14.4634 23.804 14.2744 25.064C14.2164 25.454 14.3334 25.846 14.3334 26.238V31.723C14.3334 32.087 14.2264 32.452 14.2724 32.818C14.3854 33.697 14.3464 34.583 14.4954 35.456C14.7294 36.838 14.9404 38.215 15.2244 39.587C15.6214 41.504 16.0004 43.419 16.4404 45.327C16.7604 46.716 17.1074 48.097 17.4884 49.47C18.0684 51.568 18.6344 53.669 19.2914 55.742C19.9024 57.669 20.5984 59.568 21.2934 61.468C22.2457 64.0953 23.413 66.6395 24.7834 69.075C25.9784 71.186 27.3414 73.163 29.1714 74.788C30.3784 75.86 31.7194 76.683 33.2804 77.095C34.4998 77.4189 35.7778 77.4545 37.0134 77.199C38.4456 76.9079 39.7836 76.2673 40.9084 75.334C41.0404 75.227 41.1834 75.144 41.3404 75.342C41.9344 76.094 42.7284 76.596 43.5594 77.029C45.8014 78.199 48.2444 78.55 50.7254 78.692C51.3274 78.726 51.9334 78.64 52.5384 78.624C53.7194 78.591 54.8654 78.361 55.9924 78.035C56.5844 77.864 57.1614 77.646 57.7634 77.444C57.7944 78.085 57.8344 78.701 57.8544 79.318L57.9374 82.681C57.9534 83.193 57.9734 83.705 58.0204 84.215C58.1424 85.529 58.2614 86.843 58.4184 88.153C58.5264 89.056 58.6404 89.965 58.8524 90.847C59.2786 92.6244 59.8615 94.3606 60.5944 96.035C61.296 97.6602 62.3752 99.0946 63.7424 100.219ZM60.1514 83.451C60.0804 81.872 60.0274 80.2922 59.9924 78.712C59.9504 76.77 59.9364 74.827 59.9094 72.885L59.9044 72.811C58.9174 73.404 57.9444 74.052 56.9154 74.587C55.7084 75.214 54.3984 75.577 53.0414 75.68C51.9784 75.76 50.8994 75.833 49.8414 75.749C48.1054 75.608 46.3694 75.337 44.8154 74.481C44.1854 74.134 43.5274 73.711 43.0924 73.158C42.0514 71.829 42.5504 70.15 44.1204 69.342C45.2054 68.782 46.3894 68.549 47.5654 68.277C48.589 68.0449 49.602 67.768 50.6014 67.447C51.5874 67.124 52.2094 66.324 52.8244 65.539L53.7984 64.287L52.6274 64.165C51.4654 64.057 50.3564 63.736 49.2964 63.266C48.3904 62.865 48.3764 62.821 47.7104 63.543C46.6004 64.748 45.5204 65.983 44.4314 67.209C43.6304 68.111 42.8354 69.018 42.0364 69.923C41.2484 70.818 40.5084 71.763 39.6574 72.595C38.3954 73.831 36.8734 74.574 35.0574 74.49C33.8924 74.436 32.8264 74.028 31.8664 73.361C29.8874 71.983 28.5544 70.053 27.3394 68.028C25.7844 65.432 24.5894 62.667 23.5684 59.827C22.8614 57.863 22.1504 55.898 21.5344 53.906C20.8634 51.741 20.2744 49.551 19.6954 47.359C19.2574 45.706 18.8694 44.039 18.4994 42.369C18.0734 40.4707 17.6794 38.5655 17.3174 36.654C17.0764 35.363 16.9374 34.053 16.7424 32.754C16.4794 31.001 16.4314 29.234 16.5274 27.475C16.6124 25.89 16.8394 24.31 17.0654 22.736C17.3784 20.558 18.0964 18.503 19.1284 16.562C19.765 15.3792 20.5452 14.2795 21.4514 13.288C22.9414 11.639 24.7444 10.448 26.7504 9.553C28.1514 8.928 29.6324 8.553 31.1414 8.258C33.3814 7.822 35.6414 7.84 37.9014 7.886C38.8894 7.907 39.8744 8.086 40.8614 8.185C42.9874 8.396 45.0704 8.844 47.1274 9.395C48.6274 9.797 50.0964 10.319 51.5824 10.771C51.7304 10.816 51.9494 10.812 52.0724 10.733C54.0874 9.417 56.2884 8.549 58.6314 8.052C59.5204 7.864 60.4384 7.781 61.3474 7.723C62.4514 7.654 63.5664 7.588 64.6684 7.653C65.9934 7.729 67.3144 7.924 68.6314 8.104C69.2714 8.192 69.8954 8.413 70.5354 8.473C70.8434 8.502 71.1684 8.279 71.4924 8.203C73.1464 7.82 74.7934 7.395 76.4624 7.094C77.7044 6.87 78.9744 6.764 80.2364 6.692C81.6464 6.611 83.0644 6.552 84.4724 6.62C86.2524 6.706 88.0194 6.959 89.7634 7.365C91.9254 7.868 93.9974 8.598 95.9684 9.612C97.4414 10.371 98.8404 11.249 100.101 12.329C100.927 13.038 101.773 13.737 102.518 14.527C103.438 15.501 104.376 16.474 104.954 17.721C105.389 18.662 105.699 19.636 105.785 20.665C105.891 21.946 106.02 23.231 106.009 24.514C105.998 25.74 105.83 26.965 105.712 28.189C105.441 30.977 104.836 33.705 104.099 36.397C103.484 38.6206 102.788 40.8208 102.01 42.993C101.301 44.996 100.482 46.962 99.6554 48.921C99.0458 50.3714 98.384 51.7994 97.6714 53.202C96.3174 55.854 94.9094 58.479 93.2804 60.979C92.9994 61.41 92.7324 61.852 92.4584 62.293C93.1694 62.772 93.9744 62.941 94.7844 63.029C95.5554 63.112 96.3414 63.163 97.1114 63.105C98.3444 63.013 99.5734 62.837 100.799 62.666C102.013 62.496 103.202 62.151 104.45 62.242C105.694 62.333 106.586 63.279 106.501 64.445C106.447 65.183 106.108 65.816 105.618 66.357C103.303 68.911 100.397 70.459 97.0734 71.222C95.8104 71.512 94.5084 71.661 93.2154 71.782C92.1112 71.8795 91.0019 71.9055 89.8944 71.86C89.0824 71.83 88.2774 71.644 87.4474 71.524C87.3634 72.283 87.2844 73.074 87.1884 73.862L86.8014 76.885C86.6844 77.843 86.5934 78.805 86.4724 79.763C86.3544 80.693 86.2074 81.618 86.0834 82.547C85.9684 83.412 85.8834 84.282 85.7534 85.146C85.5564 86.47 85.3674 87.797 85.1084 89.111C84.7984 90.681 84.3244 92.201 83.5474 93.618C82.6014 95.347 81.2604 96.664 79.5524 97.639C77.7924 98.644 75.8674 99.167 73.9184 99.605C72.5364 99.916 71.1154 99.966 69.7164 99.839C67.2914 99.62 65.2214 98.583 63.6564 96.702C62.1634 94.907 61.1524 92.851 60.7914 90.522C60.6214 89.4138 60.4893 88.3002 60.3954 87.183C60.2871 85.9409 60.2058 84.6966 60.1514 83.451ZM62.8774 67.497C62.8924 68.327 62.8064 69.157 62.8104 69.987C62.8274 73.85 62.8554 77.714 62.8884 81.578C62.8944 82.209 62.9254 82.842 62.9704 83.472C63.0654 84.792 63.1594 86.113 63.2874 87.429C63.3794 88.364 63.5044 89.296 63.6514 90.224C63.8614 91.537 64.4594 92.707 65.1374 93.826C65.7214 94.788 66.4824 95.604 67.4834 96.168C69.1854 97.125 71.0164 97.205 72.8624 96.853C74.1094 96.616 75.3354 96.233 76.5454 95.838C77.7363 95.4561 78.8236 94.8057 79.7234 93.937C80.5724 93.115 81.1744 92.112 81.5804 91.005C82.3674 88.859 82.6144 86.598 82.9394 84.356C83.0614 83.516 83.1674 82.674 83.2784 81.833C83.4054 80.876 83.5334 79.92 83.6554 78.963C83.7474 78.249 83.8294 77.536 83.9164 76.823C84.0414 75.799 84.1724 74.776 84.2914 73.752C84.3824 72.96 84.4584 72.165 84.5404 71.371C84.6444 70.356 84.7554 69.344 84.8464 68.327C84.9144 67.557 84.8864 66.772 85.0234 66.015C85.2744 64.628 85.9304 63.448 87.1604 62.684C87.6744 62.366 88.2564 62.156 88.8264 61.886L88.7284 61.737C88.2014 61.053 87.6614 60.38 87.1444 59.688C86.3324 58.602 85.7484 57.391 85.1614 56.174C84.6054 55.02 83.9254 53.928 83.3404 52.787C82.3194 50.797 81.2794 48.812 80.3384 46.785C79.1554 44.235 78.2234 41.597 77.9304 38.773C77.8054 37.579 77.7734 36.385 78.0164 35.202C78.4034 33.312 79.3894 31.834 81.0494 30.82C82.5894 29.88 84.3044 29.576 86.0614 29.481C87.1514 29.422 88.2484 29.47 89.3794 29.47L89.3424 29.279C88.6384 27.807 87.9814 26.31 87.2104 24.874C86.1244 22.846 84.7324 21.018 83.1844 19.321C82.0421 18.0592 80.7868 16.9044 79.4344 15.871C78.0964 14.858 76.6864 13.953 75.1814 13.214C73.3935 12.3247 71.5053 11.6532 69.5574 11.214C67.6724 10.796 65.7774 10.54 63.8434 10.519C62.1954 10.501 60.5574 10.577 58.9514 10.948C56.5274 11.509 54.3104 12.507 52.3834 14.123C51.316 15.0177 50.3626 16.04 49.5444 17.167C48.5774 18.492 47.7994 19.926 47.1334 21.427C46.2194 23.488 45.5924 25.631 45.1624 27.835C44.9484 28.935 44.7804 30.042 44.6094 31.149C44.5494 31.538 44.5454 31.933 44.5094 32.378L45.2414 31.997L45.9554 31.677C48.3724 30.572 50.8754 29.861 53.5654 29.942C54.7094 29.976 55.8014 30.203 56.8194 30.704C58.7694 31.666 59.9094 33.301 60.4054 35.369C60.7474 36.797 60.9824 38.253 61.2104 39.706C61.3884 40.84 61.5714 41.986 61.5914 43.13C61.6204 44.802 61.5364 46.478 61.4454 48.149C61.3676 49.5699 61.0735 50.9707 60.5734 52.303C59.6694 54.719 58.6614 57.096 57.7204 59.498C57.4094 60.292 57.1704 61.113 56.8774 61.986L58.0654 61.987C58.2094 61.99 58.3564 61.994 58.4954 62.027C59.5764 62.282 60.5154 62.772 61.2844 63.604C62.3124 64.708 62.8504 66 62.8774 67.497ZM42.2304 56.042C41.6176 54.6001 41.248 53.0667 41.1364 51.504C41.0324 50.03 41.2074 48.564 41.3594 47.096C41.5054 45.675 41.6294 44.247 41.6714 42.821C41.7424 40.474 41.5844 38.133 41.4724 35.788C41.4054 34.392 41.5674 32.979 41.6914 31.58C41.8034 30.32 41.9434 29.057 42.1824 27.815C42.5814 25.731 43.1124 23.677 43.8674 21.686C44.5824 19.798 45.4064 17.961 46.5664 16.306C47.3634 15.17 48.2654 14.111 49.1324 13.001L48.8744 12.909C46.0514 12.013 43.1814 11.311 40.2284 11.006C38.8334 10.861 37.4324 10.777 36.0334 10.693C35.6034 10.668 35.1674 10.726 34.7364 10.767C33.6694 10.87 32.5884 10.91 31.5384 11.11C29.7514 11.45 28.0364 12.022 26.4494 12.953C25.0449 13.7794 23.8136 14.8698 22.8234 16.164C21.7164 17.595 20.9694 19.213 20.4344 20.937C19.8024 22.972 19.5004 25.067 19.4194 27.18C19.3484 29.033 19.3134 30.896 19.6334 32.742C19.8704 34.115 20.0294 35.504 20.2914 36.873C20.6436 38.7396 21.039 40.5977 21.4774 42.446C22.1104 45.09 22.7444 47.736 23.4954 50.348C24.2134 52.849 25.0224 55.328 25.9024 57.778C26.6204 59.777 27.4514 61.739 28.3264 63.674C28.8964 64.935 29.5864 66.149 30.3104 67.329C31.0794 68.583 31.9554 69.773 33.1414 70.683C34.6404 71.831 35.7994 72.01 37.3234 70.749C37.9754 70.21 38.5264 69.542 39.0944 68.907C39.9954 67.899 40.8654 66.861 41.7634 65.848C42.9064 64.559 44.0634 63.283 45.2124 61.998C45.4554 61.727 45.6904 61.447 45.9264 61.173L45.5334 60.83C44.1166 59.4766 42.9925 57.847 42.2304 56.042ZM85.5714 17.639C86.5112 18.7308 87.4027 19.8632 88.2434 21.033C89.8547 23.2925 91.1516 25.7604 92.0984 28.369C92.5184 29.524 92.8544 30.69 92.7044 31.953C92.6004 32.838 92.6074 33.735 92.5304 34.625C92.4654 35.365 92.3474 36.101 92.2524 36.839C92.1084 37.951 91.9004 39.061 91.8384 40.178C91.7784 41.242 91.8414 42.316 91.9084 43.381C91.9754 44.464 92.1214 45.542 92.2204 46.622C92.3324 47.849 92.4844 49.073 92.5184 50.302C92.5464 51.31 92.4564 52.323 92.3694 53.331C92.2576 54.5387 91.9643 55.7227 91.4994 56.843C91.1764 57.637 90.7914 58.405 90.4284 59.199L90.5744 59.353L90.7964 59.525L91.0214 59.125C92.9098 56.1538 94.5875 53.0539 96.0424 49.848C96.9752 47.7787 97.8601 45.6881 98.6964 43.578C100 40.2978 101.054 36.9235 101.847 33.484C102.207 31.94 102.483 30.372 102.727 28.804C102.918 27.578 103.076 26.338 103.112 25.101C103.149 23.789 103.077 22.467 102.956 21.159C102.865 20.171 102.621 19.177 102.003 18.372C101.007 17.079 99.9334 15.843 98.6124 14.864C97.4994 14.041 96.3894 13.194 95.1964 12.502C93.3034 11.403 91.2544 10.673 89.1134 10.175C87.0224 9.688 84.9064 9.478 82.7764 9.433C81.5204 9.406 80.2584 9.541 79.0054 9.66C77.8694 9.766 76.7404 9.948 75.5974 10.098C76.8244 10.788 78.0354 11.402 79.1754 12.125C81.5754 13.645 83.7274 15.474 85.5714 17.639ZM54.3914 60.202C55.1664 57.722 56.2234 55.352 57.2464 52.97C58.0774 51.037 58.5304 49.002 58.6814 46.91C58.7564 45.879 58.7364 44.835 58.6854 43.801C58.6356 42.6506 58.5302 41.5032 58.3694 40.363C58.1544 38.909 57.9104 37.454 57.5664 36.027C57.1934 34.483 56.2534 33.407 54.6414 33.01C53.6604 32.769 52.6844 32.779 51.6914 32.936C49.2684 33.317 47.0504 34.21 44.9844 35.518C44.5684 35.781 44.3384 35.994 44.4114 36.589C44.5634 37.853 44.5964 39.137 44.5904 40.412C44.5824 42.217 44.5054 44.022 44.4374 45.826C44.4154 46.413 44.3304 46.999 44.2664 47.584C44.1704 48.48 43.9834 49.375 43.9894 50.27C43.9954 51.192 44.0894 52.135 44.3134 53.028C45.0244 55.86 46.5284 58.176 48.9954 59.811C50.5124 60.817 52.1904 61.323 54.0334 61.42C54.1554 60.997 54.2684 60.598 54.3914 60.202ZM51.4954 35.913C51.1704 35.232 51.3564 34.667 52.1084 34.405C52.2924 34.342 52.4804 34.272 52.6704 34.254C52.9334 34.228 53.1984 34.247 53.4634 34.247C54.4184 34.253 55.3364 34.386 56.1234 34.992C56.6294 35.382 56.7654 35.897 56.4374 36.429C55.9724 37.182 55.2654 37.56 54.3954 37.632C53.0264 37.745 52.0654 37.107 51.4954 35.913ZM89.4704 35.664L89.7814 32.939C89.8264 32.575 89.6354 32.475 89.3294 32.466C88.3664 32.44 87.4044 32.405 86.4414 32.389C85.3574 32.369 84.3004 32.543 83.2964 32.955C82.1824 33.414 81.3344 34.148 80.9874 35.361C80.7335 36.2548 80.6534 37.189 80.7514 38.113C80.8867 39.5427 81.2105 40.9482 81.7144 42.293C82.3884 44.086 83.0924 45.878 83.9354 47.596C85.0764 49.921 86.3664 52.173 87.5784 54.463C87.9014 55.074 88.1754 55.713 88.5124 56.426C89.1929 55.0076 89.5644 53.4608 89.6024 51.888C89.6354 50.587 89.5324 49.283 89.4564 47.982C89.4094 47.186 89.2964 46.394 89.2194 45.6C89.1124 44.494 88.9484 43.387 88.9224 42.278C88.8974 41.15 88.9774 40.016 89.0734 38.889C89.1634 37.811 89.3414 36.74 89.4704 35.664ZM87.3014 34.79C86.9434 35.777 86.1794 36.335 85.1874 36.498C84.2634 36.651 83.4534 36.31 82.8514 35.572C82.4224 35.047 82.5864 34.426 83.2294 34.07C83.9674 33.662 84.7784 33.559 85.7354 33.497C85.9964 33.544 86.3864 33.585 86.7584 33.69C87.2974 33.842 87.4974 34.25 87.3014 34.79ZM58.7034 65.193C58.1754 64.761 57.4754 64.736 56.9734 65.21C56.3494 65.8 55.8004 66.474 55.2514 67.138C54.6184 67.906 54.0224 68.704 53.2064 69.299C52.0174 70.164 50.6284 70.522 49.2344 70.861C48.1264 71.131 47.0124 71.382 45.9014 71.64L45.8874 71.784C46.2174 71.936 46.5364 72.127 46.8814 72.236C48.5764 72.772 50.3014 73.04 52.0934 72.888C53.3854 72.777 54.6174 72.495 55.7844 71.942C57.3914 71.181 58.6284 69.974 59.6794 68.572C59.8554 68.338 59.9354 67.992 59.9554 67.69C60.0264 66.624 59.4854 65.831 58.7034 65.193ZM89.6484 64.731C88.8174 65.01 88.1414 65.435 87.9404 66.334C87.8034 66.942 87.7534 67.571 87.7004 68.194C87.6904 68.304 87.8274 68.506 87.9314 68.534C88.5714 68.703 89.2154 68.902 89.8694 68.961C90.6744 69.034 91.4924 69.011 92.3024 68.971C93.1764 68.927 94.0564 68.87 94.9184 68.726C96.9474 68.384 98.9124 67.83 100.656 66.678C101.286 66.263 101.908 65.839 102.534 65.417L102.482 65.328C101.815 65.427 101.15 65.548 100.48 65.619C99.1164 65.765 97.7514 65.919 96.3824 65.998C95.7214 66.036 95.0514 65.909 94.3854 65.855C93.2674 65.764 92.1754 65.516 91.2304 64.918C90.6854 64.574 90.2294 64.536 89.6484 64.731Z" fill="#336791"/>
<path d="M3.16838 103.184C4.60417 102.951 6.05685 102.838 7.51138 102.846C9.74638 102.846 11.3854 103.366 12.4254 104.302C13.3874 105.134 13.9594 106.408 13.9594 107.969C13.9594 109.555 13.4904 110.803 12.6064 111.713C11.4104 112.987 9.46038 113.637 7.25038 113.637C6.57438 113.637 5.95038 113.611 5.43138 113.481V120.502H3.16838V103.184ZM5.43138 111.634C5.92538 111.764 6.54938 111.816 7.30338 111.816C10.0324 111.816 11.6974 110.49 11.6974 108.072C11.6974 105.758 10.0594 104.64 7.56338 104.64C6.57538 104.64 5.82138 104.718 5.43138 104.822V111.634ZM27.6614 114.104C27.6614 118.758 24.4364 120.787 21.3944 120.787C17.9884 120.787 15.3624 118.291 15.3624 114.312C15.3624 110.1 18.1184 107.63 21.6024 107.63C25.2174 107.629 27.6614 110.256 27.6614 114.104ZM17.6774 114.234C17.6774 116.99 19.2634 119.07 21.4994 119.07C23.6834 119.07 25.3204 117.016 25.3204 114.182C25.3204 112.05 24.2554 109.346 21.5504 109.346C18.8454 109.346 17.6774 111.842 17.6774 114.234ZM30.2344 118.16C30.9104 118.602 32.1064 119.07 33.2504 119.07C34.9144 119.07 35.6944 118.238 35.6944 117.198C35.6944 116.106 35.0454 115.508 33.3544 114.884C31.0924 114.078 30.0264 112.83 30.0264 111.322C30.0264 109.294 31.6644 107.63 34.3684 107.63C35.6424 107.63 36.7614 107.994 37.4634 108.41L36.8914 110.074C36.1176 109.597 35.2263 109.345 34.3174 109.346C32.9654 109.346 32.2114 110.126 32.2114 111.062C32.2114 112.102 32.9664 112.57 34.6044 113.194C36.7884 114.026 37.9064 115.118 37.9064 116.99C37.9064 119.2 36.1904 120.76 33.2004 120.76C31.8224 120.76 30.5484 120.422 29.6644 119.902L30.2344 118.16ZM43.5994 104.301V107.915H46.8744V109.657H43.5994V116.443C43.5994 118.003 44.0404 118.887 45.3154 118.887C45.7623 118.893 46.2081 118.841 46.6414 118.731L46.7454 120.447C46.3044 120.629 45.6014 120.759 44.7184 120.759C43.6524 120.759 42.7934 120.421 42.2474 119.797C41.5984 119.121 41.3634 118.003 41.3634 116.521V109.657H39.4134V107.915H41.3634V104.899L43.5994 104.301ZM60.1354 107.916C60.0824 108.826 60.0314 109.84 60.0314 111.374V118.68C60.0314 121.566 59.4594 123.334 58.2374 124.427C57.0154 125.571 55.2474 125.935 53.6614 125.935C52.1534 125.935 50.4894 125.571 49.4744 124.895L50.0464 123.153C50.8784 123.673 52.1784 124.141 53.7384 124.141C56.0784 124.141 57.7944 122.919 57.7944 119.747V118.343H57.7424C57.0404 119.513 55.6884 120.449 53.7384 120.449C50.6184 120.449 48.3824 117.797 48.3824 114.312C48.3824 110.048 51.1644 107.63 54.0504 107.63C56.2354 107.63 57.4314 108.774 57.9774 109.814H58.0294L58.1334 107.916H60.1354ZM57.7694 112.882C57.7694 112.492 57.7434 112.154 57.6394 111.842C57.2234 110.516 56.1054 109.424 54.4414 109.424C52.2564 109.424 50.6974 111.27 50.6974 114.182C50.6974 116.652 51.9454 118.706 54.4154 118.706C55.8194 118.706 57.0934 117.822 57.5874 116.366C57.7174 115.976 57.7704 115.534 57.7704 115.144L57.7694 112.882ZM63.6704 111.842C63.6704 110.36 63.6444 109.086 63.5664 107.916H65.5694L65.6464 110.386H65.7504C66.3224 108.696 67.7004 107.63 69.2344 107.63C69.4944 107.63 69.6754 107.656 69.8834 107.708V109.866C69.6275 109.81 69.3662 109.784 69.1044 109.788C67.4924 109.788 66.3474 111.01 66.0364 112.726C65.9722 113.078 65.9374 113.434 65.9324 113.792V120.5H63.6704V111.842ZM73.1874 114.624C73.2394 117.718 75.2144 118.992 77.5024 118.992C79.1414 118.992 80.1284 118.706 80.9864 118.342L81.3764 119.98C80.5704 120.344 79.1924 120.76 77.1904 120.76C73.3164 120.76 71.0024 118.212 71.0024 114.416C71.0024 110.62 73.2384 107.629 76.9044 107.629C81.0124 107.629 82.1044 111.243 82.1044 113.557C82.1044 114.025 82.0524 114.389 82.0264 114.623L73.1874 114.624ZM79.8954 112.986C79.9204 111.53 79.2964 109.268 76.7234 109.268C74.4094 109.268 73.3954 111.4 73.2124 112.986H79.8954ZM84.7044 117.744C85.9302 118.48 87.3306 118.875 88.7604 118.888C91.0744 118.888 92.4264 117.666 92.4264 115.898C92.4264 114.26 91.4904 113.324 89.1244 112.414C86.2644 111.4 84.4964 109.918 84.4964 107.448C84.4964 104.718 86.7584 102.69 90.1644 102.69C91.9584 102.69 93.2584 103.106 94.0384 103.548L93.4144 105.394C92.3915 104.844 91.2477 104.558 90.0864 104.562C87.6944 104.562 86.7844 105.992 86.7844 107.188C86.7844 108.826 87.8494 109.632 90.2684 110.568C93.2324 111.713 94.7404 113.142 94.7404 115.716C94.7404 118.42 92.7384 120.76 88.6044 120.76C86.9144 120.76 85.0684 120.266 84.1314 119.642L84.7044 117.744ZM112.29 123.074C110.03 122.481 107.793 121.804 105.582 121.046C105.218 120.916 104.854 120.786 104.516 120.786C100.356 120.63 96.7944 117.562 96.7944 111.92C96.7944 106.304 100.226 102.69 104.958 102.69C109.716 102.69 112.811 106.382 112.811 111.556C112.811 116.054 110.731 118.94 107.819 119.954V120.058C109.561 120.5 111.459 120.916 112.941 121.176L112.29 123.074ZM110.418 111.66C110.418 108.15 108.599 104.535 104.88 104.535C101.058 104.535 99.1864 108.071 99.2124 111.868C99.1864 115.586 101.24 118.94 104.776 118.94C108.391 118.94 110.418 115.664 110.418 111.66ZM115.747 102.976H118.01V118.602H125.498V120.5H115.747V102.976Z" fill="#336791"/>
</svg>
