<svg width="129" height="128" viewBox="0 0 129 128" fill="none" xmlns="http://www.w3.org/2000/svg">
<path fill-rule="evenodd" clip-rule="evenodd" d="M52.7229 23.0169C56.4789 23.0169 60.2349 23.0749 63.9859 22.9769C64.9809 22.9509 66.7659 23.7739 66.6859 21.7059C66.6249 20.0229 65.0639 20.6319 64.1179 20.6169C59.8809 20.5499 55.6299 20.3889 51.4099 20.6539C48.4069 20.8409 47.5219 19.7009 47.8989 16.9469C48.0289 15.9969 47.9039 15.0129 47.9239 14.0449C48.0559 7.59894 49.6139 5.40494 55.8659 3.81494C62.7539 2.06494 69.8029 2.12294 76.6719 3.63094C82.8469 4.98694 85.4119 9.79094 85.0999 14.2349C84.7199 19.6579 85.0139 25.1279 85.0089 30.5779C84.9999 37.4309 81.4589 41.0679 74.5499 41.1629C68.8599 41.2409 63.1629 41.3029 57.4759 41.1449C50.6979 40.9549 45.7259 46.5849 45.6919 52.9649C45.6919 53.4489 45.7749 53.9489 45.6789 54.4159C45.1909 56.7589 47.1409 60.5459 44.6569 61.2419C40.8769 62.3039 36.4509 62.3039 33.1169 58.9309C31.9869 57.7909 31.0349 56.5139 30.5329 55.0379C27.8539 47.1729 27.4309 39.2079 29.9529 31.2199C31.5249 26.2339 35.8009 23.1329 41.0979 23.0439C44.9719 22.9789 48.8469 23.0309 52.7209 23.0309L52.7229 23.0169ZM59.6249 11.8969C59.4629 9.99394 58.4399 8.60494 56.3289 8.54694C54.0199 8.48694 52.8269 9.88294 52.8239 12.1549C52.8219 14.2609 53.9689 15.6099 56.0649 15.6709C58.3679 15.7379 59.4829 14.3109 59.6249 11.8969Z" fill="#386F9F"/>
<path fill-rule="evenodd" clip-rule="evenodd" d="M81.7129 61.5719C77.4729 61.5719 73.2309 61.5349 68.9909 61.6019C68.0359 61.6139 66.4339 61.0099 66.3839 62.6429C66.3279 64.4949 68.0469 64.0129 69.1389 64.0239C73.3789 64.0769 77.6229 64.1219 81.8619 64.0039C84.0399 63.9439 84.9289 64.3609 85.0919 66.9289C85.8289 78.5539 80.7839 79.5589 71.4789 81.6739C66.1409 82.8869 60.4179 82.2439 55.1539 79.8859C50.8009 77.9389 48.1299 75.1329 48.4669 69.8789C48.8009 64.6929 48.8569 59.4399 48.4579 54.2589C47.9779 48.0059 51.8679 43.4069 59.4329 43.4049C64.5229 43.4039 69.6469 43.0159 74.6929 43.4799C81.9079 44.1419 87.5649 37.8879 87.8129 30.6159C87.8229 30.3749 87.7609 30.1159 87.8229 29.8919C88.4589 27.6569 86.1969 24.3349 89.2229 23.2059C93.7959 21.5009 98.9529 23.2929 101.289 26.7629C104.234 31.1319 104.632 36.2729 105.108 41.2929C105.623 46.7039 104.105 51.7979 101.832 56.6789C100.288 59.9889 97.6919 61.5889 94.0749 61.5939C89.9549 61.5969 85.8359 61.5939 81.7149 61.5939C81.7129 61.5859 81.7129 61.5789 81.7129 61.5719ZM80.6089 72.3719C80.1559 70.3059 79.2239 68.8959 76.8239 68.8369C74.3279 68.7769 73.6839 70.6439 73.6969 72.3109C73.7109 74.0829 74.2049 76.2629 76.9069 76.0589C79.1529 75.8869 80.2479 74.4959 80.6089 72.3719Z" fill="#FFCF46"/>
<path fill-rule="evenodd" clip-rule="evenodd" d="M15.0179 114.849C15.0179 117.431 15.1349 119.849 14.9629 122.246C14.8889 123.28 16.0289 125.226 13.8599 125.224C11.9479 125.224 11.4569 123.702 11.5179 121.863C11.6349 118.353 11.5519 114.836 11.5519 111.323V103.325C11.5519 98.505 12.8449 96.873 17.4549 95.875C21.7409 94.943 25.1089 96.386 26.8409 100.138C28.5729 103.891 28.7069 107.758 26.9739 111.576C25.2659 115.338 22.1199 116.742 18.0899 115.627C17.1719 115.377 16.2449 115.16 15.0179 114.849ZM15.0179 105.401C15.0179 106.731 15.1979 108.087 14.9809 109.381C14.4789 112.372 16.3889 113.109 18.6409 113.641C20.8679 114.167 22.3949 113.22 23.2879 111.258C24.7889 107.968 25.0409 104.575 23.9009 101.096C22.8889 98.004 20.5519 97.642 17.8239 98.026C15.1299 98.409 14.7649 100.241 14.9999 102.506C15.0999 103.461 15.0179 104.436 15.0179 105.401ZM44.0049 114.689C42.1599 115.169 40.5579 115.681 38.9179 115.989C35.3279 116.66 32.6699 114.689 31.7349 111.095C30.5749 106.647 31.5569 102.216 31.5869 97.778C31.5999 95.755 33.4719 96.544 34.7669 95.46C34.7669 100.21 34.7849 104.31 34.7609 108.407C34.7479 110.465 35.2799 112.157 37.2259 113.242C39.3739 114.44 41.1359 113.299 43.0059 112.53C44.3459 111.979 44.1789 110.854 44.1809 109.784C44.1909 105.912 44.1799 102.044 44.1929 98.172C44.1949 97.217 44.0959 96.05 45.5059 96.097C46.7629 96.138 47.3099 96.885 47.2889 98.255C47.1979 104.662 47.3789 111.078 47.1189 117.476C46.9219 122.314 43.5089 125.269 38.5989 125.486C37.8639 125.517 37.0939 125.585 36.8189 124.673C36.3999 123.269 37.5369 123.534 38.2839 123.295C43.6849 121.577 44.3909 120.551 44.0049 114.689ZM66.8289 98.064C68.2579 97.389 69.0789 96.771 69.9819 96.604C75.0489 95.667 78.9319 96.024 78.9219 102.849C78.9149 106.364 78.9239 109.88 78.9149 113.394C78.9129 114.378 78.9759 115.336 77.5089 115.421C75.9619 115.513 75.6219 114.628 75.6289 113.415C75.6469 110.028 75.7389 106.641 75.7359 103.255C75.7339 100.625 75.1969 98.297 71.8519 98.305C68.9179 98.31 66.8399 100.5 66.8249 103.522C66.8081 106.793 66.8091 110.065 66.8279 113.336C66.8309 114.498 66.8559 115.517 65.1759 115.421C63.6629 115.331 63.8489 114.311 63.8489 113.372C63.8389 104.772 63.8809 96.163 63.8079 87.557C63.7949 86.049 64.3899 85.113 65.7279 85.049C67.6159 84.962 66.7509 86.613 66.7789 87.441C66.9019 90.812 66.8289 94.191 66.8289 98.064ZM82.8189 105.775C82.6279 99.06 85.8129 95.475 91.5789 95.683C94.4729 95.789 96.6439 97.073 98.0449 99.573C100.52 103.995 100.185 108.419 97.5069 112.56C95.6669 115.404 92.8369 116.745 89.3869 116.013C85.9849 115.293 83.3209 112.23 82.8389 108.66C82.7109 107.715 82.8189 106.736 82.8189 105.775ZM96.1389 105.932C95.9869 104.76 96.0139 103.126 95.5259 101.668C94.8589 99.668 93.6429 98.058 91.1619 97.948C88.6589 97.84 87.4099 99.303 86.5749 101.328C85.2639 104.507 85.3489 107.699 86.7689 110.821C87.6809 112.832 89.0889 114.304 91.5289 113.896C93.9319 113.495 95.3499 111.92 95.8409 109.583C96.0639 108.524 96.0279 107.414 96.1389 105.932ZM103.146 106.827C103.146 105.615 103.123 104.405 103.15 103.199C103.206 100.874 102.465 98.298 105.6 97.11C109.19 95.754 112.748 94.738 116.362 96.837C117.714 97.623 118.212 99.051 118.226 100.567C118.263 104.798 118.207 109.031 118.264 113.262C118.284 114.738 117.896 115.476 116.237 115.436C114.419 115.393 114.802 114.153 114.814 113.163C114.857 109.783 115.092 106.406 115.028 103.031C114.944 98.781 112.612 97.048 108.639 98.091C106.991 98.525 105.961 99.325 106.042 101.365C106.203 105.347 106.079 109.343 106.094 113.332C106.098 114.488 106.115 115.512 104.447 115.415C102.919 115.327 103.169 114.27 103.157 113.353C103.129 111.177 103.149 109 103.146 106.827ZM59.5779 97.403C59.3279 97.699 59.1179 98.163 58.8979 98.167C54.9339 98.222 56.0339 101.181 55.9319 103.376C55.8349 105.421 55.9319 107.476 55.9029 109.527C55.8729 111.565 56.0499 113.459 58.5299 114C59.2409 114.154 59.5649 114.564 59.4169 115.274C59.2539 116.058 58.6289 116.027 58.0099 116.019C55.1599 115.969 53.0469 113.954 52.9629 111.004C52.8769 107.99 52.9939 104.969 52.9229 101.958C52.8859 100.528 53.6289 98.703 51.3229 98.136C51.0699 98.075 50.9799 97.358 50.8149 96.949C53.8909 95.984 52.6149 93.331 53.0369 91.318C53.2369 90.365 54.1419 90.104 54.9969 90.023C55.8619 89.941 55.8689 90.641 55.8969 91.226C56.0109 93.546 54.8099 96.651 59.0809 96.482C59.2239 96.477 59.3909 97.045 59.5779 97.403Z" fill="#386F9F"/>
</svg>
