<svg width="103" height="125" viewBox="0 0 103 125" fill="none" xmlns="http://www.w3.org/2000/svg">
<path d="M51.2223 54.8002C56.3585 54.8002 60.5223 50.6364 60.5223 45.5002C60.5223 40.3639 56.3585 36.2002 51.2223 36.2002C46.0861 36.2002 41.9223 40.3639 41.9223 45.5002C41.9223 50.6364 46.0861 54.8002 51.2223 54.8002Z" fill="#61DAFB"/>
<path d="M51.2223 79.7001C58.5223 86.8001 65.7223 91.0001 71.5223 91.0001C73.4223 91.0001 75.2223 90.6001 76.7223 89.7001C81.9223 86.7001 83.8223 79.2001 82.0223 68.5001C81.7223 66.6001 81.3223 64.7001 80.8223 62.7001C82.8223 62.1001 84.6223 61.5001 86.4223 60.9001C96.5223 57.0001 102.122 51.6001 102.122 45.7001C102.122 39.7001 96.5223 34.3001 86.4223 30.5001C84.6223 29.8001 82.8223 29.2001 80.8223 28.7001C81.3223 26.7001 81.7223 24.8001 82.0223 22.9001C83.7223 12.0001 81.8223 4.4001 76.6223 1.4001C75.1223 0.500098 73.3223 0.100098 71.4223 0.100098C65.7223 0.100098 58.4223 4.3001 51.1223 11.4001C43.9223 4.3001 36.7223 0.100098 30.9223 0.100098C29.0223 0.100098 27.2223 0.500098 25.7223 1.4001C20.5223 4.4001 18.6223 11.9001 20.4223 22.6001C20.7223 24.5001 21.1223 26.4001 21.6223 28.4001C19.6223 29.0001 17.8223 29.6001 16.0223 30.2001C5.92229 34.1001 0.322296 39.5001 0.322296 45.4001C0.322296 51.4001 5.92229 56.8001 16.0223 60.6001C17.8223 61.3001 19.6223 61.9001 21.6223 62.4001C21.1223 64.4001 20.7223 66.3001 20.4223 68.2001C18.7223 78.9001 20.6223 86.5001 25.7223 89.4001C27.2223 90.3001 29.0223 90.7001 30.9223 90.7001C36.7223 90.9001 43.9223 86.7001 51.2223 79.7001ZM45.6223 66.2001C47.4223 66.3001 49.3223 66.3001 51.2223 66.3001C53.1223 66.3001 55.0223 66.3001 56.8223 66.2001C55.0223 68.6001 53.1223 70.8001 51.2223 72.9001C49.3223 70.8001 47.4223 68.6001 45.6223 66.2001ZM33.2223 55.9001C34.2223 57.6001 35.1223 59.2001 36.2223 60.8001C33.1223 60.4001 30.2223 59.9001 27.4223 59.3001C28.3223 56.6001 29.3223 53.8001 30.5223 51.0001C31.3223 52.6001 32.2223 54.3001 33.2223 55.9001ZM27.4223 31.8001C30.2223 31.2001 33.1223 30.7001 36.2223 30.3001C35.2223 31.9001 34.2223 33.5001 33.2223 35.2001C32.2223 36.9001 31.3223 38.5001 30.5223 40.2001C29.2223 37.3001 28.2223 34.5001 27.4223 31.8001ZM32.9223 45.5001C34.2223 42.8001 35.6223 40.1001 37.2223 37.4001C38.7223 34.8001 40.4223 32.2001 42.1223 29.6001C45.1223 29.4001 48.1223 29.3001 51.2223 29.3001C54.4223 29.3001 57.4223 29.4001 60.3223 29.6001C62.1223 32.2001 63.7223 34.8001 65.2223 37.4001C66.8223 40.1001 68.2223 42.8001 69.5223 45.5001C68.2223 48.2001 66.8223 50.9001 65.2223 53.6001C63.7223 56.2001 62.0223 58.8001 60.3223 61.4001C57.3223 61.6001 54.3223 61.7001 51.2223 61.7001C48.0223 61.7001 45.0223 61.6001 42.1223 61.4001C40.3223 58.8001 38.7223 56.2001 37.2223 53.6001C35.6223 50.9001 34.2223 48.2001 32.9223 45.5001ZM72.0223 40.1001L69.3223 35.1001C68.3223 33.4001 67.4223 31.8001 66.3223 30.2001C69.4223 30.6001 72.3223 31.1001 75.1223 31.7001C74.2223 34.5001 73.2223 37.3001 72.0223 40.1001ZM72.0223 50.9001C73.2223 53.7001 74.2223 56.5001 75.1223 59.2001C72.3223 59.8001 69.4223 60.3001 66.3223 60.7001C67.3223 59.1001 68.3223 57.5001 69.3223 55.8001C70.2223 54.3001 71.1223 52.6001 72.0223 50.9001ZM74.3223 85.6001C73.5223 86.1001 72.5223 86.3001 71.4223 86.3001C66.5223 86.3001 60.4223 82.3001 54.4223 76.3001C57.3223 73.2001 60.1223 69.7001 62.9223 65.8001C67.6223 65.4001 72.1223 64.7001 76.3223 63.7001C76.8223 65.5001 77.1223 67.3001 77.4223 69.1001C78.8223 77.6001 77.7223 83.7001 74.3223 85.6001ZM79.5223 32.9001C90.7223 36.1001 97.4223 41.0001 97.4223 45.5001C97.4223 49.4001 92.8223 53.3001 84.7223 56.4001C83.1223 57.0001 81.3223 57.6001 79.5223 58.1001C78.2223 54.0001 76.6223 49.8001 74.6223 45.5001C76.6223 41.2001 78.3223 37.0001 79.5223 32.9001ZM71.5223 4.7001C72.6223 4.7001 73.5223 4.9001 74.4223 5.4001C77.7223 7.3001 78.9223 13.3001 77.5223 21.9001C77.2223 23.6001 76.8223 25.4001 76.4223 27.3001C72.2223 26.4001 67.7223 25.7001 63.0223 25.2001C60.3223 21.3001 57.4223 17.8001 54.5223 14.7001C60.5223 8.8001 66.6223 4.7001 71.5223 4.7001ZM56.8223 24.8001C55.0223 24.7001 53.1223 24.7001 51.2223 24.7001C49.3223 24.7001 47.4223 24.7001 45.6223 24.8001C47.4223 22.4001 49.3223 20.2001 51.2223 18.1001C53.1223 20.2001 55.0223 22.5001 56.8223 24.8001ZM28.1223 5.4001C28.9223 4.9001 29.9223 4.7001 31.0223 4.7001C35.9223 4.7001 42.0223 8.7001 48.0223 14.7001C45.1223 17.8001 42.3223 21.3001 39.5223 25.2001C34.8223 25.6001 30.3223 26.3001 26.1223 27.3001C25.6223 25.5001 25.3223 23.7001 25.0223 21.9001C23.6223 13.4001 24.7223 7.4001 28.1223 5.4001ZM22.9223 58.1001C11.7223 54.9001 5.02229 50.0001 5.02229 45.5001C5.02229 41.6001 9.6223 37.7001 17.7223 34.6001C19.3223 34.0001 21.1223 33.4001 22.9223 32.9001C24.2223 37.0001 25.8223 41.2001 27.8223 45.5001C25.8223 49.8001 24.1223 54.1001 22.9223 58.1001ZM25.0223 69.1001C25.3223 67.4001 25.7223 65.6001 26.1223 63.7001C30.3223 64.6001 34.8223 65.3001 39.5223 65.8001C42.2223 69.7001 45.1223 73.2001 48.0223 76.3001C42.0223 82.2001 35.9223 86.3001 31.0223 86.3001C29.9223 86.3001 29.0223 86.1001 28.1223 85.6001C24.7223 83.7001 23.6223 77.6001 25.0223 69.1001ZM20.8223 110.3C23.0223 107.6 23.1223 104.6 21.9223 101.6C20.7223 98.6001 18.2223 97.2001 15.1223 97.1001C11.4223 97.0001 7.6223 97.1001 3.9223 97.1001H3.2223V123H6.2223V113.2H10.9223C11.5223 113.2 12.0223 113.4 12.3223 113.9L18.3223 123.2C18.4223 123.4 18.7223 123.7 18.9223 123.7H22.8223C20.4223 120 18.1223 116.5 15.7223 112.9C17.8223 112.6 19.6223 111.9 20.8223 110.3ZM6.2223 110.1V100.2H7.3223C9.6223 100.2 12.0223 100.1 14.3223 100.3C17.0223 100.4 18.9223 102.5 18.9223 105.2C18.9223 107.9 16.7223 110 14.0223 110.1C11.6223 110.2 9.2223 110.1 6.2223 110.1ZM44.9223 111.4C43.3223 104.4 36.9223 102.6 32.0223 104.8C28.2223 106.5 26.5223 109.8 26.4223 113.9C26.3223 117 27.2223 119.8 29.6223 121.9C32.3223 124.3 35.6223 124.6 39.0223 124C40.9223 123.6 42.6223 122.7 43.9223 121.3C43.4223 120.6 42.9223 119.9 42.4223 119.3C39.6223 121.7 36.5223 122.5 33.1223 120.9C30.9223 119.8 29.8223 117.1 29.6223 115.1H45.1223V113.8C45.2223 112.9 45.1223 112.1 44.9223 111.4ZM29.8223 113C29.5223 110 32.5223 106.8 35.8223 106.8C39.6223 106.7 42.0223 109 42.1223 113H29.8223ZM60.5223 104.3C59.0223 104 57.4223 103.9 55.9223 104C53.5223 104.2 51.4223 105.3 49.7223 107.1C50.2223 107.8 50.6223 108.5 51.2223 109.3C51.4223 109.1 51.6223 108.9 51.8223 108.8C53.4223 107.3 55.3223 106.5 57.6223 106.7C59.4223 106.8 61.1223 107.4 61.6223 109.2C62.0223 110.6 61.9223 112.1 62.0223 113.6C61.7223 113.6 61.6223 113.5 61.5223 113.4C59.1223 111.4 56.4223 111 53.5223 111.7C50.8223 112.4 49.1223 114.5 48.9223 117.2C48.7223 120.3 50.1223 122.6 52.8223 123.7C54.5223 124.4 56.4223 124.4 58.2223 124C59.6223 123.7 60.2223 122.9 62.2223 121.8V123.1H65.0223C65.0223 119.1 65.1223 114.2 65.0223 109.6C65.0223 106.7 63.3223 104.9 60.5223 104.3ZM61.9223 116.9C61.8223 117.2 61.9223 117.5 61.9223 117.8C61.9223 119.9 61.4223 120.6 59.4223 121.4C58.0223 121.9 56.5223 122.1 55.0223 121.6C53.3223 121.1 52.1223 119.6 52.1223 117.9C52.0223 116.2 53.1223 114.5 54.8223 114C57.1223 113.2 59.2223 113.7 61.1223 115.1C61.7223 115.6 62.1223 116.1 61.9223 116.9ZM77.5223 107C80.1223 106.2 82.5223 106.7 84.3223 108.9L84.6223 109.1C85.3223 108.5 85.9223 107.9 86.7223 107.2C86.4223 106.9 86.3223 106.7 86.1223 106.4C83.2223 103.3 77.5223 102.9 74.0223 105.4C69.1223 109 69.2223 116 71.6223 119.7C73.9223 123.2 77.2223 124.4 81.1223 123.9C83.4223 123.6 85.3223 122.5 86.8223 120.6C86.1223 120 85.4223 119.4 84.7223 118.7C84.5223 118.9 84.4223 119 84.3223 119.2C81.6223 122.2 77.1223 121.9 74.7223 118.7C73.3223 116.8 73.0223 114.6 73.4223 112.4C73.6223 109.9 74.9223 107.9 77.5223 107ZM98.3223 120.6C98.1223 120.7 98.0223 120.8 98.0223 120.8C97.2223 121.4 96.4223 121.5 95.5223 121.2C94.6223 120.8 94.5223 120 94.4223 119.2V107.8C94.4223 107.6 94.4223 108 94.5223 107H98.3223V104H94.3223V99.0001H91.3223V104.4H88.7223C88.5223 104.4 88.2223 104.6 88.2223 104.8C88.1223 105.5 88.2223 106 88.2223 107H91.4223V119.8C91.4223 121.4 91.8223 122.8 93.2223 123.6C94.7223 124.5 97.6223 124.3 98.9223 123.2C99.1223 123.1 99.2223 122.7 99.2223 122.6C98.9223 122 98.6223 121.3 98.3223 120.6Z" fill="#61DAFB"/>
</svg>
