<svg width="129" height="128" viewBox="0 0 129 128" fill="none" xmlns="http://www.w3.org/2000/svg">
<g clip-path="url(#clip0_212_90)">
<path d="M1.45246 98.8199C0.846458 98.5199 0.444458 97.8129 0.444458 97.0079C0.444458 95.7969 1.35046 94.8909 2.56146 94.8909C2.96446 94.8909 3.36646 94.9919 3.67146 95.1949C5.88546 96.7069 8.30746 97.4099 10.4215 97.4099C12.7415 97.4099 14.0495 96.4019 14.0495 94.8899V94.7899C14.0495 92.9769 11.5295 92.3709 8.81146 91.5659C5.38146 90.5589 1.55346 89.1449 1.55346 84.7109V84.6089C1.55346 80.1759 5.18346 77.5549 9.81946 77.5549C12.3395 77.5549 14.8595 78.2619 17.1745 79.4729C17.8815 79.8749 18.4845 80.5779 18.4845 81.4879C18.4845 82.6949 17.4755 83.6019 16.2685 83.6019C15.8665 83.6019 15.5615 83.5039 15.1585 83.3009C13.2455 82.2929 11.3315 81.6869 9.71846 81.6869C7.60046 81.6869 6.49146 82.6949 6.49146 84.0069V84.1049C6.49146 85.8199 9.01146 86.5269 11.7335 87.4339C15.1595 88.4409 18.9875 90.0539 18.9875 94.1879V94.2849C18.9875 99.2269 15.1595 101.645 10.3235 101.645C7.39746 101.645 4.17446 100.738 1.45246 98.8199ZM39.8505 89.6519C39.8505 85.1129 36.8275 82.1919 33.2025 82.1919C29.5725 82.1919 26.4485 85.2149 26.4485 89.6519V89.7499C26.4485 94.1879 29.5735 97.2099 33.2025 97.2099C36.8275 97.0079 39.8505 94.1879 39.8505 89.6519ZM21.3075 80.2769C21.3075 78.7659 22.4175 77.5549 23.9285 77.5549C24.2862 77.5536 24.6406 77.6231 24.9714 77.7594C25.3021 77.8958 25.6026 78.0963 25.8554 78.3493C26.1083 78.6024 26.3086 78.903 26.4447 79.2338C26.5808 79.5646 26.65 79.9192 26.6485 80.2769V81.8909C28.3625 79.4729 30.7805 77.5549 34.5105 77.5549C39.9525 77.5549 45.2965 81.8909 45.2965 89.5509V89.6519C45.2965 97.3089 40.0535 101.645 34.5105 101.645C30.6785 101.645 28.2605 99.7299 26.6475 97.6129V105.777C26.6475 107.289 25.4405 108.398 23.9285 108.398C23.5838 108.4 23.2422 108.334 22.9233 108.203C22.6045 108.072 22.3148 107.879 22.0711 107.635C21.8274 107.392 21.6345 107.102 21.5036 106.783C21.3727 106.464 21.3063 106.123 21.3085 105.778V80.2779M47.5105 80.1759C47.5105 78.6639 48.6205 77.4569 50.1315 77.4569C50.4892 77.4552 50.8437 77.5243 51.1746 77.6603C51.5055 77.7963 51.8062 77.9964 52.0593 78.2492C52.3125 78.502 52.5131 78.8023 52.6495 79.133C52.786 79.4637 52.8557 79.8182 52.8545 80.1759V81.4879C53.1545 79.4729 56.3825 77.5549 58.6985 77.5549C60.4135 77.5549 61.3195 78.6649 61.3195 80.1749C61.3195 81.5849 60.4135 82.4959 59.2025 82.6949C55.3745 83.4019 52.7525 86.6249 52.7525 91.2619V98.9219C52.7525 100.332 51.5425 101.543 50.0305 101.543C49.6858 101.545 49.3442 101.479 49.0254 101.348C48.7066 101.217 48.417 101.024 48.1735 100.78C47.93 100.536 47.7374 100.246 47.6069 99.9273C47.4764 99.6083 47.4107 99.2665 47.4135 98.9219V80.1759M63.7375 80.1759C63.7363 79.8182 63.8059 79.4637 63.9424 79.133C64.0789 78.8023 64.2794 78.502 64.5326 78.2492C64.7857 77.9964 65.0864 77.7963 65.4173 77.6603C65.7482 77.5243 66.1027 77.4552 66.4605 77.4569C66.8181 77.4553 67.1725 77.5245 67.5033 77.6606C67.8341 77.7966 68.1346 77.9968 68.3877 78.2495C68.6407 78.5023 68.8412 78.8027 68.9776 79.1333C69.114 79.4639 69.1836 79.8182 69.1825 80.1759V98.9219C69.1825 100.434 67.9725 101.543 66.4605 101.543C64.9485 101.543 63.7375 100.433 63.7375 98.9219V80.1759ZM71.4995 80.2769C71.4981 79.9191 71.5676 79.5645 71.704 79.2337C71.8403 78.9028 72.0407 78.6022 72.2938 78.3492C72.5468 78.0962 72.8474 77.8957 73.1782 77.7594C73.5091 77.6231 73.8636 77.5536 74.2215 77.5549C75.7335 77.5549 77.0415 78.7649 77.0415 80.2769V81.3869C78.5535 79.2699 80.8745 77.5549 84.6015 77.5549C90.0465 77.5549 93.1675 81.0819 93.1675 86.4249V98.9219C93.1675 100.434 91.9605 101.543 90.4475 101.543C88.9375 101.543 87.6245 100.433 87.6245 98.9219V88.0389C87.6245 84.4099 85.7105 82.3949 82.4845 82.3949C79.2605 82.3949 77.0425 84.5119 77.0425 88.1369V98.9219C77.0425 100.434 75.8355 101.543 74.2225 101.543C72.7105 101.543 71.4995 100.433 71.4995 98.9219V80.2769ZM107.077 97.1089C103.347 97.1089 100.225 94.2849 100.225 89.6519V89.5509C100.225 85.0159 103.346 82.0899 107.077 82.0899C110.807 82.0899 114.03 85.1129 114.03 89.5499V89.6519C114.03 94.0859 110.807 97.1089 107.077 97.1089ZM116.651 77.6559C116.294 77.6547 115.939 77.7243 115.609 77.8608C115.278 77.9973 114.978 78.1979 114.725 78.451C114.472 78.7042 114.272 79.0048 114.136 79.3357C114 79.6666 113.931 80.0211 113.932 80.3789V81.9919C112.116 79.5699 109.698 77.6559 105.768 77.6559C100.124 77.6559 94.6785 81.9919 94.6785 89.7499V89.8519C94.6785 97.5119 100.124 101.945 105.768 101.945C109.698 101.945 112.218 100.031 113.932 97.9149C113.628 102.148 111.007 104.265 106.37 104.265C103.651 104.265 101.233 103.559 99.0145 102.449C98.7145 102.348 98.4095 102.25 98.0075 102.25C96.6975 102.25 95.6875 103.258 95.6875 104.465C95.6875 105.473 96.2925 106.18 97.2025 106.582C100.124 107.992 103.046 108.699 106.472 108.699C110.807 108.699 114.132 107.691 116.35 105.574C118.366 103.66 119.475 100.738 119.475 96.8039V80.2779C119.374 78.7669 118.163 77.6579 116.651 77.6579M69.1825 71.1059C69.1825 72.5159 67.9725 73.7279 66.4605 73.7279C64.9485 73.7279 63.7375 72.5169 63.7375 71.1059C63.7375 69.6959 64.9475 68.4859 66.4605 68.4859C67.9715 68.4859 69.1825 69.6959 69.1825 71.1059ZM83.2925 53.6689C77.3465 61.5319 64.5465 58.9109 56.2805 59.2119C56.2805 59.2119 54.8705 59.3139 53.3585 59.5169C53.3585 59.5169 53.9645 59.3139 54.5655 59.0129C60.3115 57.0989 63.0345 56.6929 66.5615 54.8799C73.1125 51.5559 79.6635 44.3999 80.9715 36.9389C78.4515 44.0949 70.8935 50.2429 63.9415 52.7629C59.2015 54.4779 50.6355 56.0909 50.6355 56.0909L50.3355 55.8879C44.4875 53.1649 44.2885 40.7709 54.9715 36.8369C59.6085 35.1259 64.0415 36.0319 69.0815 34.9229C74.4215 33.7159 80.6715 29.7829 83.1915 24.6419C86.0145 33.0089 89.4425 45.8099 83.2925 53.6689ZM83.3935 22.2239C82.7006 23.8023 81.821 25.2919 80.7735 26.6609C76.3395 22.2239 70.1905 19.5049 63.3355 19.5049C49.9325 19.5049 39.0455 30.1879 39.0455 43.1879C39.0455 50.0399 42.0695 56.1879 46.8075 60.5239L47.3115 61.0279C46.4055 60.3209 46.3035 59.0129 47.0075 58.2039C47.7145 57.2979 49.0225 57.1959 49.9325 57.9039C50.8395 58.6099 50.9405 59.9189 50.2335 60.7239C49.5265 61.6339 48.2175 61.7309 47.3115 61.0279L47.7145 61.3289C52.1304 64.9149 57.6458 66.8722 63.3345 66.8719C76.1355 66.8719 86.6165 57.0989 87.5265 44.9029C88.3315 38.9539 86.5185 31.2939 83.3935 22.2229M125.823 79.2709H124.917V80.4809H125.823C126.128 80.4809 126.428 80.2779 126.428 79.8759C126.428 79.4739 126.128 79.2709 125.823 79.2709ZM126.327 82.2939L125.421 80.8839H124.815V82.2939H124.311V78.8679H125.721C126.327 78.8679 126.831 79.2709 126.831 79.8759C126.841 80.1288 126.751 80.3753 126.582 80.5634C126.413 80.7515 126.177 80.8664 125.924 80.8839L126.831 82.2939H126.327ZM125.522 77.9619C124.112 77.9619 122.901 79.0669 122.901 80.4819C122.901 81.8919 124.112 83.0009 125.522 83.0009C126.932 83.0009 128.143 81.8909 128.143 80.4809C128.143 79.1689 126.933 77.9609 125.523 77.9609L125.522 77.9619ZM125.522 83.6019C123.807 83.6019 122.397 82.2939 122.397 80.5789C122.397 78.8689 123.807 77.5559 125.522 77.5559C127.233 77.5559 128.647 78.8679 128.647 80.5789C128.647 82.1919 127.233 83.6019 125.522 83.6019Z" fill="#5FB832"/>
</g>
<defs>
<clipPath id="clip0_212_90">
<rect width="128" height="128" fill="white" transform="translate(0.444458)"/>
</clipPath>
</defs>
</svg>
